<svg width="63" height="65" viewBox="0 0 63 65" fill="none" xmlns="http://www.w3.org/2000/svg">
<g clip-path="url(#clip0_314_16917)">
<path d="M48.1873 58.5979C46.7904 58.5522 46.2397 58.3201 45.8142 57.4114C39.987 59.5095 37.1213 58.9999 31.8893 58.5979C26.2835 58.6781 23.8599 57.8913 19.6714 56.3326C12.962 55.2559 12.7768 53.2549 9.89718 50.6819C8.91651 51.2654 8.22819 51.1979 6.53727 49.7655C-0.404167 42.3465 2.52167 37.9055 2.26103 30.0643C1.74965 29.992 1.46504 29.6583 0.962891 28.2316C0.962891 28.2316 1.34902 24.825 2.71921 22.2523C5.31634 17.3758 9.06303 15.4796 14.4789 14.387C19.2951 13.4153 26.9258 15.292 26.9258 15.292C25.779 12.6587 25.4025 11.9738 23.9916 9.40669L23.966 9.36022C23.9443 7.74374 25.0565 6.45895 26.9258 5.78132C28.4988 5.62794 29.3768 5.64671 30.8966 6.85035L33.1363 12.0688C33.1363 12.0688 35.4892 11.1448 37.0307 11.3052C38.848 11.4944 41.2306 13.367 41.2306 13.367C41.2306 13.367 43.4338 12.8027 44.91 13.0928C46.9807 13.4999 48.6376 16.4214 48.6376 16.4214C48.6376 16.4214 51.4097 13.7597 56.4801 17.0585C61.5505 20.3574 63.7829 28.2315 64.0374 32.2023L63.1675 35.1635C65.1725 46.1831 53.6949 54.5796 48.1873 58.5979Z" fill="#5E4731"/>
<path d="M26.7803 7.79664C26.0095 8.18242 24.9934 8.74041 25.3861 9.5078C26.7803 12.2329 28.2984 13.6525 28.8084 16.7326C29.1116 18.5639 28.8084 21.4858 28.8084 21.4858C31.6533 22.0168 33.1705 21.8119 35.8431 21.4858C35.8431 21.4858 36.2504 20.1023 35.8431 19.3944C33.1813 14.7679 29.9491 8.367 29.9491 8.367C29.9491 8.367 27.9048 7.23391 26.7803 7.79664Z" fill="#FAEDD6"/>
<path fill-rule="evenodd" clip-rule="evenodd" d="M19.8738 53.9878C17.8351 48.4003 14.6487 37.7189 25.5629 23.1661C25.5629 22.2341 25.1534 21.9516 24.4552 22.704C24.4552 22.704 18.4588 31.496 16.9396 37.1425C14.9556 44.517 19.0074 54.6195 19.0074 54.6195C19.0074 54.6195 13.9361 52.8686 11.7009 50.4648C7.43107 45.8728 8.02004 40.6606 9.48036 34.5626C10.9392 28.4705 18.6492 21.4005 18.6492 21.4005C18.8818 21.0241 18.4945 20.7708 18.1478 21.0241C16.8114 21.2054 8.167 30.0924 7.76229 36.4672C7.50874 40.4608 8.56066 46.0582 8.89567 47.8408C8.94645 48.111 8.98076 48.2936 8.99156 48.3696C9.29319 49.1875 9.20845 49.391 8.33425 49.0322C8.33425 49.0322 2.58689 46.8085 3.32003 34.5626C3.58636 30.1139 4.83348 27.7112 7.90446 24.1119C11.7502 19.6046 14.8285 19.7462 17.068 19.8492C17.6527 19.876 18.1802 19.9003 18.6492 19.8385C19.3266 19.7492 19.0074 19.5199 19.0074 19.5199C18.9622 18.7443 12.1044 18.1347 8.76405 21.4005C6.23977 23.8684 3.32003 28.6171 3.32003 28.6171L2.46045 28.259C2.46045 28.259 3.19218 24.3661 4.46613 22.2419C7.05433 17.9263 11.8406 15.904 15.4083 15.55C18.9761 15.1961 22.7347 15.422 27.3883 17.3715C27.8619 19.0391 27.9074 19.94 27.0302 21.4005C27.3535 22.219 27.5774 22.6326 28.6061 22.704H36.7005C36.8002 22.6179 36.8972 22.5371 36.9903 22.4595C37.6999 21.8679 38.1768 21.4703 37.8466 20.4525L33.634 13.682C33.634 13.682 36.16 12.6995 37.5302 12.8686C39.2246 13.0776 41.2037 15.2386 41.2037 15.2386C41.2037 15.2386 42.5072 13.9851 44.7586 14.4091C46.4999 14.7369 48.1951 17.3715 48.1951 17.3715C48.1951 17.3715 50.3427 16.7896 51.7501 16.779C58.9138 16.7253 62.889 31.3544 62.889 31.3544C62.249 31.6675 61.9303 31.6762 61.5855 30.7619C61.5855 30.7619 56.4373 19.9608 50.0911 19.0305C46.8392 18.5539 41.7962 20.4525 41.7962 20.4525C41.096 20.9571 41.3484 21.1513 42.5072 21.4005C42.5072 21.4005 48.358 19.1641 51.7501 20.4525C57.9059 22.7908 59.7591 29.014 61.3865 34.4793C61.4531 34.7031 61.5194 34.9255 61.5855 35.1464C64.7945 45.8618 49.1576 56.2393 48.1951 56.2393C47.3784 55.8246 47.3748 55.6297 47.4841 55.2913C48.1141 54.2608 52.7534 43.5206 51.0822 34.5626C49.804 27.7114 41.7962 22.704 41.7962 22.704C40.8952 22.7356 40.4622 22.7852 41.2037 23.5335C41.2037 23.5335 48.9299 31.1511 50.0911 37.5164C51.4555 44.9955 44.7586 56.2393 44.7586 56.2393L44.6027 56.2653C40.3591 56.9741 37.9321 57.3794 33.634 56.5845C33.2088 54.0953 33.619 51.6988 34.0102 49.4141C34.2794 47.8416 34.5395 46.322 34.512 44.8614C34.4631 42.2738 34.2678 39.9406 34.0708 37.5888C34.0555 37.4055 34.0401 37.2221 34.0249 37.0385L33.634 30.7619C33.6084 29.86 33.7347 29.0656 33.8638 28.2536C34.0123 27.3201 34.1645 26.3632 34.0937 25.1925C33.5869 24.8095 33.306 24.624 32.9087 25.1925C32.4231 26.5413 32.3447 27.3314 32.4231 28.909C32.5158 30.7727 32.6468 32.5928 32.7761 34.3911C33.292 41.5626 33.7829 48.386 31.7237 56.2393C27.1279 56.8281 24.5498 57.0916 19.8738 53.9878Z" fill="#B4A790"/>
<path d="M37.5063 13.0588C38.2964 13.1563 39.1787 13.7175 39.8823 14.2815C40.2296 14.5599 40.526 14.8316 40.7349 15.0344C40.8392 15.1358 40.9219 15.2204 40.978 15.2786C41.0058 15.3074 41.0272 15.3298 41.0415 15.345C41.0487 15.3526 41.0546 15.3587 41.0581 15.3625C41.0597 15.3643 41.0612 15.3656 41.062 15.3665V15.3674H41.063L41.1948 15.512L41.3364 15.3762L41.3374 15.3752C41.3392 15.3736 41.3429 15.3702 41.3472 15.3665C41.3556 15.3589 41.3685 15.3471 41.3862 15.3323C41.4226 15.3019 41.4782 15.2575 41.5522 15.2053C41.7005 15.1009 41.9228 14.9652 42.2124 14.8411C42.7903 14.5933 43.6403 14.3931 44.7231 14.5969C45.5272 14.7483 46.3495 15.4455 46.9888 16.1428C47.3037 16.4863 47.5662 16.8203 47.7495 17.0686C47.841 17.1925 47.9128 17.2945 47.9614 17.3655C47.9857 17.4009 48.0038 17.4289 48.0161 17.4475C48.0223 17.4568 48.0268 17.4644 48.0298 17.469C48.0312 17.4712 48.033 17.4728 48.0337 17.4739V17.4749H48.0347L48.1099 17.593L48.2456 17.5559H48.2466C48.2475 17.5557 48.2488 17.5554 48.2505 17.5549C48.2544 17.5539 48.2612 17.5521 48.269 17.55C48.2848 17.5459 48.3082 17.5393 48.3384 17.5315C48.3991 17.5158 48.4876 17.4932 48.5981 17.4661C48.8197 17.4118 49.1303 17.3397 49.4839 17.2668C50.1944 17.1205 51.0676 16.9751 51.7515 16.97C53.4727 16.9571 55.0184 17.826 56.3784 19.1702C57.7382 20.5141 58.8963 22.3175 59.8364 24.134C60.7757 25.949 61.4933 27.7676 61.9761 29.1331C62.2174 29.8155 62.399 30.3848 62.521 30.7825C62.582 30.9812 62.6281 31.1373 62.6587 31.2434C62.6591 31.2447 62.6593 31.246 62.6597 31.2473C62.5673 31.2879 62.4888 31.32 62.4185 31.3372C62.3163 31.3621 62.2458 31.3579 62.1909 31.3381C62.0773 31.297 61.9363 31.1512 61.7642 30.6946L61.7612 30.6868L61.7583 30.6799V30.679L61.7427 30.6477C61.7326 30.6269 61.7175 30.5959 61.6978 30.5559C61.6581 30.4757 61.5991 30.3578 61.522 30.2083C61.3678 29.9091 61.1404 29.4811 60.8481 28.9651C60.2638 27.9334 59.4175 26.5471 58.3716 25.1311C57.3262 23.7158 56.0779 22.2652 54.687 21.1086C53.2972 19.953 51.753 19.0806 50.1187 18.8411C48.4535 18.597 46.3489 18.9613 44.6782 19.3772C43.8392 19.5861 43.1025 19.8101 42.5757 19.9817C42.3123 20.0675 42.1011 20.1402 41.9556 20.1917C41.8828 20.2174 41.8259 20.2372 41.7876 20.2512C41.7687 20.2581 41.7545 20.2642 41.7446 20.2678L41.73 20.2727L41.729 20.2737L41.7046 20.2825L41.6841 20.2971C41.5063 20.4252 41.3636 20.551 41.2856 20.679C41.2448 20.746 41.2142 20.8254 41.2163 20.9133C41.2185 21.0043 41.255 21.0827 41.3081 21.1458C41.4044 21.2599 41.5673 21.3366 41.7456 21.3987C41.9327 21.4638 42.1757 21.5244 42.4673 21.5872L42.522 21.5999L42.5757 21.5793H42.5767C42.5773 21.5791 42.5784 21.5778 42.5796 21.5774C42.5822 21.5764 42.5863 21.5754 42.5913 21.5735C42.6021 21.5694 42.6187 21.5628 42.6401 21.5549C42.683 21.5392 42.7466 21.5164 42.8286 21.4875C42.9935 21.4295 43.2332 21.3472 43.5317 21.2532C44.129 21.065 44.9602 20.8276 45.896 20.6301C47.7791 20.2328 50.0418 20.0081 51.6821 20.6311C57.7353 22.9304 59.5701 29.0477 61.2036 34.5334C61.2702 34.7572 61.3357 34.9804 61.4019 35.2014C62.975 40.4546 59.9344 45.6562 56.314 49.5813C54.5097 51.5374 52.575 53.1616 51.0317 54.2961C50.2601 54.8634 49.5875 55.3068 49.0806 55.6077C48.8268 55.7583 48.6167 55.8724 48.4575 55.9475C48.378 55.985 48.3139 56.0117 48.2651 56.0286C48.2501 56.0338 48.2369 56.0355 48.2271 56.0383C47.8578 55.8463 47.7101 55.7235 47.6548 55.635C47.6154 55.5719 47.6129 55.5158 47.6626 55.3596C47.8402 55.0557 48.2445 54.1946 48.7251 52.9465C49.2247 51.6491 49.8147 49.923 50.3315 47.9485C51.3642 44.0035 52.1131 39.0469 51.27 34.5276C50.6201 31.044 48.2648 28.0448 46.0933 25.927C45.0053 24.866 43.9577 24.0208 43.1821 23.4407C42.7944 23.1507 42.4741 22.9264 42.2505 22.7747C42.1388 22.6988 42.0507 22.6408 41.9907 22.6018C41.9608 22.5823 41.938 22.5669 41.9224 22.5569C41.9145 22.5519 41.9079 22.5487 41.9038 22.5461C41.9018 22.5449 41.9 22.5439 41.8989 22.5432L41.8979 22.5422L41.8481 22.511L41.7896 22.5129C41.5655 22.5208 41.3602 22.5298 41.1938 22.552C41.0387 22.5727 40.8704 22.6091 40.7593 22.7043C40.6956 22.759 40.6498 22.8343 40.6382 22.927C40.6274 23.0138 40.6489 23.0973 40.6821 23.1711C40.7467 23.3149 40.8802 23.4788 41.0679 23.6682L41.0747 23.675C41.0783 23.6786 41.0842 23.6836 41.0913 23.6907C41.1057 23.705 41.1267 23.7268 41.1548 23.7551C41.2111 23.8119 41.2947 23.8963 41.4009 24.0061C41.6133 24.2256 41.9178 24.5472 42.2876 24.9524C43.0274 25.763 44.0259 26.9096 45.0601 28.2542C47.1344 30.9511 49.331 34.4166 49.9028 37.551C50.5744 41.2329 49.2615 45.8693 47.7593 49.6116C47.0103 51.4773 46.2182 53.1106 45.6138 54.2776C45.3116 54.8609 45.056 55.3273 44.8765 55.6477C44.7867 55.8079 44.7168 55.9324 44.6685 56.0159C44.6577 56.0344 44.6467 56.0502 44.6382 56.0647L44.5708 56.0764C40.3748 56.7772 37.9824 57.1748 33.8022 56.4192C33.4199 54.0146 33.8139 51.6943 34.1987 49.4465C34.4673 47.8779 34.7316 46.3395 34.7036 44.8577C34.6546 42.263 34.4581 39.9238 34.2612 37.5725L34.2153 37.0227L33.8247 30.7561H33.8257C33.8007 29.8746 33.9229 29.0969 34.0522 28.2834C34.2006 27.3503 34.3568 26.3747 34.2847 25.1809L34.2798 25.093L34.2095 25.0403L34.0249 24.9036C33.9648 24.8607 33.9061 24.8216 33.8491 24.7874C33.7357 24.7192 33.6137 24.6622 33.4839 24.6458C33.1932 24.6091 32.9645 24.7798 32.7524 25.0833L32.7378 25.1038L32.729 25.1282C32.233 26.5059 32.1526 27.3222 32.2319 28.9182C32.3248 30.7843 32.4561 32.6067 32.5854 34.4045C33.0987 41.5398 33.5823 48.2993 31.5698 56.0657C29.3305 56.3518 27.5957 56.5487 25.855 56.3088C24.1007 56.0671 22.3281 55.3786 20.0317 53.8616C19.0189 51.0784 17.744 47.0619 18.0522 41.9504C18.3626 36.8038 20.2793 30.5302 25.7163 23.2805L25.7544 23.2297V23.1663C25.7544 22.9216 25.7278 22.7061 25.6694 22.5334C25.6117 22.3629 25.5137 22.21 25.355 22.1321C25.191 22.0516 25.0106 22.0744 24.8413 22.1545C24.674 22.2339 24.4977 22.3766 24.3149 22.5735L24.3052 22.5842L24.2974 22.5959L24.2964 22.5969V22.5979C24.2956 22.599 24.294 22.6006 24.2925 22.6028C24.2895 22.6071 24.2855 22.6138 24.2798 22.6223C24.2683 22.6393 24.2512 22.6645 24.229 22.6975C24.1846 22.7635 24.1192 22.8608 24.0356 22.9866C23.8682 23.2387 23.627 23.6056 23.3335 24.0627C22.7466 24.9768 21.9482 26.2546 21.1021 27.7092C19.4127 30.6137 17.5221 34.2431 16.7554 37.093C15.7512 40.8257 16.2757 45.2318 17.0425 48.6877C17.4266 50.419 17.8728 51.9188 18.2231 52.9856C18.3983 53.5189 18.5501 53.9441 18.6577 54.2366C18.6649 54.256 18.6725 54.275 18.6792 54.2932C18.5596 54.2482 18.4147 54.195 18.2505 54.1301C17.7432 53.9296 17.0436 53.6375 16.2749 53.2708C14.7309 52.5341 12.9327 51.508 11.8413 50.3342C7.6444 45.8206 8.20702 40.7013 9.6665 34.6067C10.385 31.6069 12.6511 28.3454 14.7583 25.8196C15.8091 24.5601 16.8152 23.4899 17.5581 22.7346C17.9295 22.357 18.2352 22.0579 18.4478 21.8538C18.5537 21.752 18.6366 21.6741 18.6929 21.6213C18.721 21.595 18.7429 21.5741 18.7573 21.5608C18.7643 21.5544 18.7694 21.5494 18.7729 21.5461L18.7778 21.5413H18.7788L18.7983 21.5237L18.812 21.5012C18.8873 21.3793 18.9233 21.249 18.9077 21.1233C18.8918 20.9958 18.824 20.89 18.7261 20.8206C18.5428 20.6907 18.2885 20.7057 18.0737 20.844C17.9656 20.8678 17.8455 20.9214 17.7222 20.9905C17.5755 21.0726 17.4067 21.1861 17.2202 21.3254C16.847 21.6043 16.3919 21.9965 15.8862 22.4788C14.8744 23.4438 13.6493 24.7775 12.4546 26.3049C11.26 27.8322 10.0929 29.557 9.19775 31.303C8.30364 33.0469 7.6753 34.8248 7.57178 36.4553C7.31648 40.4774 8.37359 46.0994 8.70752 47.8762C8.75893 48.1498 8.79224 48.3262 8.80225 48.3967L8.80518 48.4163L8.81201 48.4358C8.88664 48.6381 8.93297 48.7903 8.95068 48.8997C8.96012 48.9581 8.95747 48.9912 8.95557 49.0081C8.94156 49.0094 8.91703 49.0121 8.87646 49.0061C8.77419 48.991 8.62203 48.9441 8.40674 48.8557L8.40381 48.8538C8.40356 48.8537 8.40279 48.8532 8.40186 48.8528C8.39998 48.852 8.39655 48.8508 8.39209 48.8489C8.38307 48.8451 8.36895 48.839 8.3501 48.8303C8.31192 48.8128 8.25412 48.7846 8.18018 48.7444C8.03229 48.6639 7.81844 48.5347 7.56299 48.3411C7.05233 47.9539 6.37295 47.3094 5.71338 46.2864C4.39498 44.2413 3.1466 40.6663 3.51123 34.5745C3.64338 32.3671 4.01795 30.6781 4.73486 29.0979C5.4529 27.5153 6.5192 26.0301 8.05029 24.2356C9.95537 22.0029 11.659 20.9348 13.1499 20.4329C14.6427 19.9304 15.9398 19.9888 17.0591 20.0403C17.6391 20.067 18.1851 20.093 18.6743 20.0286C18.8519 20.0052 18.985 19.9695 19.0796 19.9202C19.1759 19.8699 19.2639 19.7858 19.2729 19.6594C19.2808 19.5495 19.2223 19.4687 19.1929 19.4338C19.1896 19.4299 19.1854 19.4267 19.1821 19.4231C19.1555 19.3431 19.1009 19.2798 19.0464 19.2327C18.972 19.1684 18.8745 19.1148 18.7661 19.0686C18.5478 18.9756 18.2462 18.8969 17.8882 18.8381C17.1696 18.7202 16.1881 18.6738 15.1069 18.7542C12.9508 18.9145 10.3476 19.585 8.63037 21.2639C7.3549 22.5109 5.9856 24.3271 4.93896 25.8245C4.41465 26.5746 3.96888 27.2475 3.65479 27.7327C3.4979 27.975 3.3737 28.1707 3.28857 28.3059C3.27214 28.332 3.25614 28.3557 3.24268 28.3772L2.67822 28.1418C2.67929 28.1366 2.681 28.1308 2.68213 28.1252C2.70441 28.0157 2.73786 27.8568 2.78174 27.6594C2.86971 27.2637 2.99941 26.7134 3.16943 26.0979C3.51084 24.862 4.00748 23.3787 4.63037 22.3401C7.17936 18.0901 11.9021 16.0902 15.4272 15.7405C18.9467 15.3913 22.648 15.6107 27.228 17.5129C27.4473 18.2984 27.5604 18.8905 27.5249 19.4514C27.4883 20.0279 27.295 20.589 26.8667 21.302L26.8179 21.3831L26.8521 21.4709C27.0117 21.875 27.1615 22.223 27.4214 22.4709C27.6908 22.728 28.0542 22.8583 28.5923 22.8958H36.772L36.8257 22.8489C36.9239 22.7641 37.0197 22.6843 37.1128 22.6067C37.459 22.3181 37.7885 22.0466 37.9761 21.7083C38.1742 21.3507 38.2059 20.9396 38.0288 20.3938L38.021 20.3713L38.0093 20.3518L33.9204 13.7805C33.9756 13.7606 34.0401 13.7373 34.1128 13.7122C34.3684 13.6236 34.7229 13.5067 35.1196 13.3958C35.9229 13.1711 36.8633 12.9796 37.5063 13.0588ZM27.7349 7.83911C28.0642 7.86462 28.4097 7.94927 28.7271 8.05298C29.0435 8.1564 29.3273 8.2771 29.5317 8.37231C29.6336 8.41978 29.7159 8.46065 29.772 8.4895C29.7844 8.49588 29.7954 8.50194 29.8052 8.50708C29.8082 8.51311 29.8124 8.5196 29.8159 8.52661C29.8403 8.57464 29.8757 8.64578 29.9224 8.73755C30.016 8.92178 30.1533 9.19022 30.3257 9.52661C30.6705 10.1994 31.1574 11.1448 31.728 12.2346C32.8691 14.4138 34.3445 17.173 35.6772 19.4895C35.8473 19.785 35.8566 20.2518 35.8062 20.6829C35.7817 20.8915 35.7441 21.08 35.7134 21.2161C35.7053 21.2518 35.6968 21.284 35.6899 21.3118C33.1545 21.6215 31.6741 21.8051 29.0142 21.3274C29.0214 21.2471 29.0316 21.1418 29.0415 21.0159C29.0653 20.7116 29.0937 20.2865 29.1128 19.804C29.1508 18.8423 29.1515 17.6373 28.9966 16.7014C28.7368 15.1324 28.2202 13.9853 27.5952 12.8918C26.9643 11.7878 26.253 10.783 25.5562 9.42114C25.48 9.27221 25.4759 9.14484 25.5122 9.02856C25.5508 8.90539 25.6403 8.77816 25.7778 8.64868C26.0556 8.38717 26.4774 8.16238 26.8657 7.96802C27.1041 7.8487 27.404 7.81351 27.7349 7.83911Z" stroke="#FFB73A" stroke-width="0.3825"/>
</g>
<defs>
<clipPath id="clip0_314_16917">
<rect width="63" height="65" fill="white"/>
</clipPath>
</defs>
</svg>
